<mxfile host="Electron" agent="Mozilla/5.0 (Windows NT 10.0; Win64; x64) AppleWebKit/537.36 (KHTML, like Gecko) draw.io/27.0.9 Chrome/134.0.6998.205 Electron/35.4.0 Safari/537.36" version="27.0.9">
  <diagram name="페이지-1" id="Lo45FdKD93gxnApAbW-S">
    <mxGraphModel dx="2431" dy="1413" grid="0" gridSize="10" guides="1" tooltips="1" connect="1" arrows="1" fold="1" page="1" pageScale="1" pageWidth="827" pageHeight="1169" math="0" shadow="0">
      <root>
        <mxCell id="0" />
        <mxCell id="1" parent="0" />
        <mxCell id="Hql1T-kyzorYGqKDXrGQ-1" value="" style="rounded=0;whiteSpace=wrap;html=1;" parent="1" vertex="1">
          <mxGeometry x="460" y="410" width="1020" height="1110" as="geometry" />
        </mxCell>
        <mxCell id="Hql1T-kyzorYGqKDXrGQ-2" value="ROM&lt;div&gt;(Instruction Mem)&lt;/div&gt;" style="rounded=0;whiteSpace=wrap;html=1;fontStyle=1;fontSize=31;" parent="1" vertex="1">
          <mxGeometry x="20" y="680" width="240" height="700" as="geometry" />
        </mxCell>
        <mxCell id="Hql1T-kyzorYGqKDXrGQ-3" value="" style="rounded=0;whiteSpace=wrap;html=1;" parent="1" vertex="1">
          <mxGeometry x="690" y="680" width="280" height="380" as="geometry" />
        </mxCell>
        <mxCell id="Hql1T-kyzorYGqKDXrGQ-4" value="" style="shape=table;startSize=0;container=1;collapsible=0;childLayout=tableLayout;" parent="1" vertex="1">
          <mxGeometry x="760" y="780" width="140" height="250" as="geometry" />
        </mxCell>
        <mxCell id="Hql1T-kyzorYGqKDXrGQ-5" value="" style="shape=tableRow;horizontal=0;startSize=0;swimlaneHead=0;swimlaneBody=0;strokeColor=inherit;top=0;left=0;bottom=0;right=0;collapsible=0;dropTarget=0;fillColor=none;points=[[0,0.5],[1,0.5]];portConstraint=eastwest;" parent="Hql1T-kyzorYGqKDXrGQ-4" vertex="1">
          <mxGeometry width="140" height="50" as="geometry" />
        </mxCell>
        <mxCell id="Hql1T-kyzorYGqKDXrGQ-6" value="R31" style="shape=partialRectangle;html=1;whiteSpace=wrap;connectable=0;strokeColor=inherit;overflow=hidden;fillColor=none;top=0;left=0;bottom=0;right=0;pointerEvents=1;" parent="Hql1T-kyzorYGqKDXrGQ-5" vertex="1">
          <mxGeometry width="140" height="50" as="geometry">
            <mxRectangle width="140" height="50" as="alternateBounds" />
          </mxGeometry>
        </mxCell>
        <mxCell id="Hql1T-kyzorYGqKDXrGQ-7" value="" style="shape=tableRow;horizontal=0;startSize=0;swimlaneHead=0;swimlaneBody=0;strokeColor=inherit;top=0;left=0;bottom=0;right=0;collapsible=0;dropTarget=0;fillColor=none;points=[[0,0.5],[1,0.5]];portConstraint=eastwest;" parent="Hql1T-kyzorYGqKDXrGQ-4" vertex="1">
          <mxGeometry y="50" width="140" height="50" as="geometry" />
        </mxCell>
        <mxCell id="Hql1T-kyzorYGqKDXrGQ-8" value="R30" style="shape=partialRectangle;html=1;whiteSpace=wrap;connectable=0;strokeColor=inherit;overflow=hidden;fillColor=none;top=0;left=0;bottom=0;right=0;pointerEvents=1;" parent="Hql1T-kyzorYGqKDXrGQ-7" vertex="1">
          <mxGeometry width="140" height="50" as="geometry">
            <mxRectangle width="140" height="50" as="alternateBounds" />
          </mxGeometry>
        </mxCell>
        <mxCell id="Hql1T-kyzorYGqKDXrGQ-9" value="" style="shape=tableRow;horizontal=0;startSize=0;swimlaneHead=0;swimlaneBody=0;strokeColor=inherit;top=0;left=0;bottom=0;right=0;collapsible=0;dropTarget=0;fillColor=none;points=[[0,0.5],[1,0.5]];portConstraint=eastwest;" parent="Hql1T-kyzorYGqKDXrGQ-4" vertex="1">
          <mxGeometry y="100" width="140" height="50" as="geometry" />
        </mxCell>
        <mxCell id="Hql1T-kyzorYGqKDXrGQ-10" value="..." style="shape=partialRectangle;html=1;whiteSpace=wrap;connectable=0;strokeColor=inherit;overflow=hidden;fillColor=none;top=0;left=0;bottom=0;right=0;pointerEvents=1;" parent="Hql1T-kyzorYGqKDXrGQ-9" vertex="1">
          <mxGeometry width="140" height="50" as="geometry">
            <mxRectangle width="140" height="50" as="alternateBounds" />
          </mxGeometry>
        </mxCell>
        <mxCell id="Hql1T-kyzorYGqKDXrGQ-11" value="" style="shape=tableRow;horizontal=0;startSize=0;swimlaneHead=0;swimlaneBody=0;strokeColor=inherit;top=0;left=0;bottom=0;right=0;collapsible=0;dropTarget=0;fillColor=none;points=[[0,0.5],[1,0.5]];portConstraint=eastwest;" parent="Hql1T-kyzorYGqKDXrGQ-4" vertex="1">
          <mxGeometry y="150" width="140" height="50" as="geometry" />
        </mxCell>
        <mxCell id="Hql1T-kyzorYGqKDXrGQ-12" value="R1" style="shape=partialRectangle;html=1;whiteSpace=wrap;connectable=0;strokeColor=inherit;overflow=hidden;fillColor=none;top=0;left=0;bottom=0;right=0;pointerEvents=1;" parent="Hql1T-kyzorYGqKDXrGQ-11" vertex="1">
          <mxGeometry width="140" height="50" as="geometry">
            <mxRectangle width="140" height="50" as="alternateBounds" />
          </mxGeometry>
        </mxCell>
        <mxCell id="Hql1T-kyzorYGqKDXrGQ-13" value="" style="shape=tableRow;horizontal=0;startSize=0;swimlaneHead=0;swimlaneBody=0;strokeColor=inherit;top=0;left=0;bottom=0;right=0;collapsible=0;dropTarget=0;fillColor=none;points=[[0,0.5],[1,0.5]];portConstraint=eastwest;" parent="Hql1T-kyzorYGqKDXrGQ-4" vertex="1">
          <mxGeometry y="200" width="140" height="50" as="geometry" />
        </mxCell>
        <mxCell id="Hql1T-kyzorYGqKDXrGQ-14" value="R0(==0 Fix)" style="shape=partialRectangle;html=1;whiteSpace=wrap;connectable=0;strokeColor=inherit;overflow=hidden;fillColor=none;top=0;left=0;bottom=0;right=0;pointerEvents=1;" parent="Hql1T-kyzorYGqKDXrGQ-13" vertex="1">
          <mxGeometry width="140" height="50" as="geometry">
            <mxRectangle width="140" height="50" as="alternateBounds" />
          </mxGeometry>
        </mxCell>
        <mxCell id="Hql1T-kyzorYGqKDXrGQ-15" value="ALU" style="shape=step;perimeter=stepPerimeter;whiteSpace=wrap;html=1;fixedSize=1;fontStyle=1;fontSize=15;" parent="1" vertex="1">
          <mxGeometry x="1180" y="770" width="120" height="200" as="geometry" />
        </mxCell>
        <mxCell id="Hql1T-kyzorYGqKDXrGQ-16" value="" style="endArrow=classic;html=1;rounded=0;entryX=0.083;entryY=0.245;entryDx=0;entryDy=0;entryPerimeter=0;" parent="1" target="Hql1T-kyzorYGqKDXrGQ-15" edge="1">
          <mxGeometry width="50" height="50" relative="1" as="geometry">
            <mxPoint x="970" y="820" as="sourcePoint" />
            <mxPoint x="1020" y="770" as="targetPoint" />
          </mxGeometry>
        </mxCell>
        <mxCell id="Hql1T-kyzorYGqKDXrGQ-18" value="RD1" style="text;html=1;align=center;verticalAlign=middle;whiteSpace=wrap;rounded=0;" parent="1" vertex="1">
          <mxGeometry x="910" y="810" width="60" height="30" as="geometry" />
        </mxCell>
        <mxCell id="Hql1T-kyzorYGqKDXrGQ-19" value="RD2" style="text;html=1;align=center;verticalAlign=middle;whiteSpace=wrap;rounded=0;" parent="1" vertex="1">
          <mxGeometry x="910" y="930" width="60" height="30" as="geometry" />
        </mxCell>
        <mxCell id="Hql1T-kyzorYGqKDXrGQ-20" value="Register File" style="text;html=1;align=center;verticalAlign=middle;whiteSpace=wrap;rounded=0;fontStyle=1;fontSize=23;" parent="1" vertex="1">
          <mxGeometry x="775" y="700" width="110" height="30" as="geometry" />
        </mxCell>
        <mxCell id="Hql1T-kyzorYGqKDXrGQ-21" value="Control Unit" style="rounded=0;whiteSpace=wrap;html=1;fontStyle=1;fontSize=31;" parent="1" vertex="1">
          <mxGeometry x="490" y="440" width="810" height="170" as="geometry" />
        </mxCell>
        <mxCell id="Hql1T-kyzorYGqKDXrGQ-22" style="edgeStyle=orthogonalEdgeStyle;rounded=0;orthogonalLoop=1;jettySize=auto;html=1;entryX=-0.007;entryY=0.847;entryDx=0;entryDy=0;entryPerimeter=0;" parent="1" source="Hql1T-kyzorYGqKDXrGQ-15" target="Hql1T-kyzorYGqKDXrGQ-3" edge="1">
          <mxGeometry relative="1" as="geometry">
            <Array as="points">
              <mxPoint x="1420" y="870" />
              <mxPoint x="1420" y="1210" />
              <mxPoint x="540" y="1210" />
              <mxPoint x="540" y="1002" />
            </Array>
          </mxGeometry>
        </mxCell>
        <mxCell id="Hql1T-kyzorYGqKDXrGQ-23" value="WD" style="text;html=1;align=center;verticalAlign=middle;whiteSpace=wrap;rounded=0;" parent="1" vertex="1">
          <mxGeometry x="680" y="990" width="60" height="30" as="geometry" />
        </mxCell>
        <mxCell id="Hql1T-kyzorYGqKDXrGQ-24" value="RF_&lt;span style=&quot;color: rgba(0, 0, 0, 0); font-family: monospace; font-size: 0px; text-align: start; text-wrap-mode: nowrap;&quot;&gt;%3CmxGraphModel%3E%3Croot%3E%3CmxCell%20id%3D%220%22%2F%3E%3CmxCell%20id%3D%221%22%20parent%3D%220%22%2F%3E%3CmxCell%20id%3D%222%22%20value%3D%22WD%22%20style%3D%22text%3Bhtml%3D1%3Balign%3Dcenter%3BverticalAlign%3Dmiddle%3BwhiteSpace%3Dwrap%3Brounded%3D0%3B%22%20vertex%3D%221%22%20parent%3D%221%22%3E%3CmxGeometry%20x%3D%2240%22%20y%3D%22610%22%20width%3D%2260%22%20height%3D%2230%22%20as%3D%22geometry%22%2F%3E%3C%2FmxCell%3E%3C%2Froot%3E%3C%2FmxGraphModel%3E&lt;/span&gt;WE" style="text;html=1;align=center;verticalAlign=middle;whiteSpace=wrap;rounded=0;" parent="1" vertex="1">
          <mxGeometry x="690" y="700" width="60" height="30" as="geometry" />
        </mxCell>
        <mxCell id="Hql1T-kyzorYGqKDXrGQ-25" style="edgeStyle=orthogonalEdgeStyle;rounded=0;orthogonalLoop=1;jettySize=auto;html=1;entryX=0;entryY=0.5;entryDx=0;entryDy=0;" parent="1" source="Hql1T-kyzorYGqKDXrGQ-26" target="Hql1T-kyzorYGqKDXrGQ-24" edge="1">
          <mxGeometry relative="1" as="geometry" />
        </mxCell>
        <mxCell id="Hql1T-kyzorYGqKDXrGQ-26" value="RF_&lt;span style=&quot;color: rgba(0, 0, 0, 0); font-family: monospace; font-size: 0px; text-align: start; text-wrap-mode: nowrap;&quot;&gt;%3CmxGraphModel%3E%3Croot%3E%3CmxCell%20id%3D%220%22%2F%3E%3CmxCell%20id%3D%221%22%20parent%3D%220%22%2F%3E%3CmxCell%20id%3D%222%22%20value%3D%22WD%22%20style%3D%22text%3Bhtml%3D1%3Balign%3Dcenter%3BverticalAlign%3Dmiddle%3BwhiteSpace%3Dwrap%3Brounded%3D0%3B%22%20vertex%3D%221%22%20parent%3D%221%22%3E%3CmxGeometry%20x%3D%2240%22%20y%3D%22610%22%20width%3D%2260%22%20height%3D%2230%22%20as%3D%22geometry%22%2F%3E%3C%2FmxCell%3E%3C%2Froot%3E%3C%2FmxGraphModel%3E&lt;/span&gt;WE" style="text;html=1;align=center;verticalAlign=middle;whiteSpace=wrap;rounded=0;" parent="1" vertex="1">
          <mxGeometry x="680" y="580" width="60" height="30" as="geometry" />
        </mxCell>
        <mxCell id="Hql1T-kyzorYGqKDXrGQ-27" value="PC" style="rounded=0;whiteSpace=wrap;html=1;fontStyle=1;fontSize=15;" parent="1" vertex="1">
          <mxGeometry x="770" y="1290" width="120" height="60" as="geometry" />
        </mxCell>
        <mxCell id="Hql1T-kyzorYGqKDXrGQ-28" style="edgeStyle=orthogonalEdgeStyle;rounded=0;orthogonalLoop=1;jettySize=auto;html=1;exitX=1;exitY=0.5;exitDx=0;exitDy=0;entryX=1;entryY=0.5;entryDx=0;entryDy=0;" parent="1" source="Hql1T-kyzorYGqKDXrGQ-29" target="Hql1T-kyzorYGqKDXrGQ-27" edge="1">
          <mxGeometry relative="1" as="geometry" />
        </mxCell>
        <mxCell id="Hql1T-kyzorYGqKDXrGQ-29" value="&lt;font style=&quot;font-size: 26px;&quot;&gt;+&lt;/font&gt;" style="shape=step;perimeter=stepPerimeter;whiteSpace=wrap;html=1;fixedSize=1;rotation=-180;" parent="1" vertex="1">
          <mxGeometry x="1000" y="1265" width="60" height="110" as="geometry" />
        </mxCell>
        <mxCell id="Hql1T-kyzorYGqKDXrGQ-30" style="edgeStyle=orthogonalEdgeStyle;rounded=0;orthogonalLoop=1;jettySize=auto;html=1;exitX=0.5;exitY=1;exitDx=0;exitDy=0;entryX=0.1;entryY=0.2;entryDx=0;entryDy=0;entryPerimeter=0;" parent="1" source="Hql1T-kyzorYGqKDXrGQ-27" target="Hql1T-kyzorYGqKDXrGQ-29" edge="1">
          <mxGeometry relative="1" as="geometry">
            <Array as="points">
              <mxPoint x="830" y="1450" />
              <mxPoint x="1150" y="1450" />
              <mxPoint x="1150" y="1353" />
            </Array>
          </mxGeometry>
        </mxCell>
        <mxCell id="Hql1T-kyzorYGqKDXrGQ-31" value="" style="endArrow=classic;html=1;rounded=0;entryX=0.1;entryY=0.818;entryDx=0;entryDy=0;entryPerimeter=0;" parent="1" target="Hql1T-kyzorYGqKDXrGQ-29" edge="1">
          <mxGeometry width="50" height="50" relative="1" as="geometry">
            <mxPoint x="1150" y="1285" as="sourcePoint" />
            <mxPoint x="1180" y="1230" as="targetPoint" />
          </mxGeometry>
        </mxCell>
        <mxCell id="Hql1T-kyzorYGqKDXrGQ-32" value="32&#39;d4" style="rounded=1;whiteSpace=wrap;html=1;" parent="1" vertex="1">
          <mxGeometry x="1150" y="1250" width="70" height="60" as="geometry" />
        </mxCell>
        <mxCell id="Hql1T-kyzorYGqKDXrGQ-33" value="addr" style="text;html=1;align=center;verticalAlign=middle;whiteSpace=wrap;rounded=0;" parent="1" vertex="1">
          <mxGeometry x="200" y="1300" width="60" height="30" as="geometry" />
        </mxCell>
        <mxCell id="Hql1T-kyzorYGqKDXrGQ-34" style="edgeStyle=orthogonalEdgeStyle;rounded=0;orthogonalLoop=1;jettySize=auto;html=1;exitX=0;exitY=0.5;exitDx=0;exitDy=0;entryX=1;entryY=0.914;entryDx=0;entryDy=0;entryPerimeter=0;" parent="1" source="Hql1T-kyzorYGqKDXrGQ-27" target="Hql1T-kyzorYGqKDXrGQ-2" edge="1">
          <mxGeometry relative="1" as="geometry" />
        </mxCell>
        <mxCell id="Hql1T-kyzorYGqKDXrGQ-35" value="CPU" style="text;html=1;align=center;verticalAlign=middle;whiteSpace=wrap;rounded=0;fontStyle=1;fontSize=31;" parent="1" vertex="1">
          <mxGeometry x="782.5" y="350" width="225" height="30" as="geometry" />
        </mxCell>
        <mxCell id="Hql1T-kyzorYGqKDXrGQ-36" value="instr_Code" style="text;html=1;align=center;verticalAlign=middle;whiteSpace=wrap;rounded=0;" parent="1" vertex="1">
          <mxGeometry x="197" y="855" width="60" height="30" as="geometry" />
        </mxCell>
        <mxCell id="Hql1T-kyzorYGqKDXrGQ-37" style="edgeStyle=orthogonalEdgeStyle;rounded=0;orthogonalLoop=1;jettySize=auto;html=1;entryX=0.001;entryY=0.415;entryDx=0;entryDy=0;entryPerimeter=0;" parent="1" source="Hql1T-kyzorYGqKDXrGQ-41" target="Hql1T-kyzorYGqKDXrGQ-1" edge="1">
          <mxGeometry relative="1" as="geometry" />
        </mxCell>
        <mxCell id="Hql1T-kyzorYGqKDXrGQ-38" value="" style="endArrow=classic;html=1;rounded=0;entryX=0;entryY=0.5;entryDx=0;entryDy=0;" parent="1" source="Hql1T-kyzorYGqKDXrGQ-46" target="Hql1T-kyzorYGqKDXrGQ-3" edge="1">
          <mxGeometry width="50" height="50" relative="1" as="geometry">
            <mxPoint x="460" y="870" as="sourcePoint" />
            <mxPoint x="510" y="820" as="targetPoint" />
          </mxGeometry>
        </mxCell>
        <mxCell id="Hql1T-kyzorYGqKDXrGQ-39" value="" style="edgeStyle=orthogonalEdgeStyle;rounded=0;orthogonalLoop=1;jettySize=auto;html=1;entryDx=0;entryDy=0;entryPerimeter=0;" parent="1" source="Hql1T-kyzorYGqKDXrGQ-36" target="Hql1T-kyzorYGqKDXrGQ-41" edge="1">
          <mxGeometry relative="1" as="geometry">
            <mxPoint x="257" y="870" as="sourcePoint" />
            <mxPoint x="461" y="871" as="targetPoint" />
          </mxGeometry>
        </mxCell>
        <mxCell id="Hql1T-kyzorYGqKDXrGQ-40" style="edgeStyle=orthogonalEdgeStyle;rounded=0;orthogonalLoop=1;jettySize=auto;html=1;entryX=0;entryY=0.5;entryDx=0;entryDy=0;" parent="1" source="Hql1T-kyzorYGqKDXrGQ-41" target="Hql1T-kyzorYGqKDXrGQ-21" edge="1">
          <mxGeometry relative="1" as="geometry">
            <Array as="points">
              <mxPoint x="360" y="525" />
            </Array>
          </mxGeometry>
        </mxCell>
        <mxCell id="Hql1T-kyzorYGqKDXrGQ-41" value="" style="shape=waypoint;sketch=0;fillStyle=solid;size=6;pointerEvents=1;points=[];fillColor=none;resizable=0;rotatable=0;perimeter=centerPerimeter;snapToPoint=1;" parent="1" vertex="1">
          <mxGeometry x="350" y="860" width="20" height="20" as="geometry" />
        </mxCell>
        <mxCell id="Hql1T-kyzorYGqKDXrGQ-42" value="R_ADDR1" style="text;html=1;align=center;verticalAlign=middle;whiteSpace=wrap;rounded=0;" parent="1" vertex="1">
          <mxGeometry x="690" y="855" width="60" height="30" as="geometry" />
        </mxCell>
        <mxCell id="Hql1T-kyzorYGqKDXrGQ-43" value="R_ADDR2" style="text;html=1;align=center;verticalAlign=middle;whiteSpace=wrap;rounded=0;" parent="1" vertex="1">
          <mxGeometry x="690" y="900" width="60" height="30" as="geometry" />
        </mxCell>
        <mxCell id="Hql1T-kyzorYGqKDXrGQ-44" value="" style="endArrow=classic;html=1;rounded=0;entryDx=0;entryDy=0;" parent="1" target="Hql1T-kyzorYGqKDXrGQ-46" edge="1">
          <mxGeometry width="50" height="50" relative="1" as="geometry">
            <mxPoint x="460" y="870" as="sourcePoint" />
            <mxPoint x="690" y="870" as="targetPoint" />
          </mxGeometry>
        </mxCell>
        <mxCell id="Hql1T-kyzorYGqKDXrGQ-45" style="edgeStyle=orthogonalEdgeStyle;rounded=0;orthogonalLoop=1;jettySize=auto;html=1;entryX=0;entryY=0.5;entryDx=0;entryDy=0;" parent="1" source="Hql1T-kyzorYGqKDXrGQ-50" target="Hql1T-kyzorYGqKDXrGQ-43" edge="1">
          <mxGeometry relative="1" as="geometry">
            <Array as="points">
              <mxPoint x="580" y="915" />
            </Array>
          </mxGeometry>
        </mxCell>
        <mxCell id="Hql1T-kyzorYGqKDXrGQ-46" value="" style="shape=waypoint;sketch=0;fillStyle=solid;size=6;pointerEvents=1;points=[];fillColor=none;resizable=0;rotatable=0;perimeter=centerPerimeter;snapToPoint=1;" parent="1" vertex="1">
          <mxGeometry x="570" y="860" width="20" height="20" as="geometry" />
        </mxCell>
        <mxCell id="Hql1T-kyzorYGqKDXrGQ-47" value="W_ADDR" style="text;html=1;align=center;verticalAlign=middle;whiteSpace=wrap;rounded=0;" parent="1" vertex="1">
          <mxGeometry x="690" y="949.5" width="60" height="30" as="geometry" />
        </mxCell>
        <mxCell id="Hql1T-kyzorYGqKDXrGQ-48" value="" style="edgeStyle=orthogonalEdgeStyle;rounded=0;orthogonalLoop=1;jettySize=auto;html=1;entryDx=0;entryDy=0;" parent="1" source="Hql1T-kyzorYGqKDXrGQ-46" target="Hql1T-kyzorYGqKDXrGQ-50" edge="1">
          <mxGeometry relative="1" as="geometry">
            <mxPoint x="580" y="870" as="sourcePoint" />
            <mxPoint x="690" y="915" as="targetPoint" />
            <Array as="points" />
          </mxGeometry>
        </mxCell>
        <mxCell id="Hql1T-kyzorYGqKDXrGQ-49" style="edgeStyle=orthogonalEdgeStyle;rounded=0;orthogonalLoop=1;jettySize=auto;html=1;entryX=0;entryY=0.5;entryDx=0;entryDy=0;" parent="1" source="Hql1T-kyzorYGqKDXrGQ-56" target="Hql1T-kyzorYGqKDXrGQ-47" edge="1">
          <mxGeometry relative="1" as="geometry">
            <Array as="points">
              <mxPoint x="580" y="964" />
            </Array>
          </mxGeometry>
        </mxCell>
        <mxCell id="Hql1T-kyzorYGqKDXrGQ-50" value="" style="shape=waypoint;sketch=0;fillStyle=solid;size=6;pointerEvents=1;points=[];fillColor=none;resizable=0;rotatable=0;perimeter=centerPerimeter;snapToPoint=1;" parent="1" vertex="1">
          <mxGeometry x="570" y="900" width="20" height="20" as="geometry" />
        </mxCell>
        <mxCell id="Hql1T-kyzorYGqKDXrGQ-54" value="&lt;b&gt;&lt;font style=&quot;font-size: 21px;&quot;&gt;Imm_Extend&lt;/font&gt;&lt;/b&gt;" style="rounded=0;whiteSpace=wrap;html=1;fillColor=#ffe6cc;strokeColor=#d79b00;" parent="1" vertex="1">
          <mxGeometry x="710" y="1100" width="230" height="81" as="geometry" />
        </mxCell>
        <mxCell id="Hql1T-kyzorYGqKDXrGQ-55" value="" style="edgeStyle=orthogonalEdgeStyle;rounded=0;orthogonalLoop=1;jettySize=auto;html=1;entryDx=0;entryDy=0;" parent="1" source="Hql1T-kyzorYGqKDXrGQ-50" target="Hql1T-kyzorYGqKDXrGQ-56" edge="1">
          <mxGeometry relative="1" as="geometry">
            <Array as="points" />
            <mxPoint x="580" y="910" as="sourcePoint" />
            <mxPoint x="690" y="965" as="targetPoint" />
          </mxGeometry>
        </mxCell>
        <mxCell id="Hql1T-kyzorYGqKDXrGQ-57" style="edgeStyle=orthogonalEdgeStyle;rounded=0;orthogonalLoop=1;jettySize=auto;html=1;entryX=0;entryY=0.5;entryDx=0;entryDy=0;" parent="1" source="Hql1T-kyzorYGqKDXrGQ-56" target="Hql1T-kyzorYGqKDXrGQ-54" edge="1">
          <mxGeometry relative="1" as="geometry">
            <Array as="points">
              <mxPoint x="580" y="1141" />
            </Array>
          </mxGeometry>
        </mxCell>
        <mxCell id="Hql1T-kyzorYGqKDXrGQ-56" value="" style="shape=waypoint;sketch=0;fillStyle=solid;size=6;pointerEvents=1;points=[];fillColor=none;resizable=0;rotatable=0;perimeter=centerPerimeter;snapToPoint=1;" parent="1" vertex="1">
          <mxGeometry x="570" y="950" width="20" height="20" as="geometry" />
        </mxCell>
        <mxCell id="Hql1T-kyzorYGqKDXrGQ-61" style="edgeStyle=orthogonalEdgeStyle;rounded=0;orthogonalLoop=1;jettySize=auto;html=1;exitX=0.5;exitY=0;exitDx=0;exitDy=0;entryX=0;entryY=0.75;entryDx=0;entryDy=0;" parent="1" source="Hql1T-kyzorYGqKDXrGQ-58" target="Hql1T-kyzorYGqKDXrGQ-15" edge="1">
          <mxGeometry relative="1" as="geometry" />
        </mxCell>
        <mxCell id="Hql1T-kyzorYGqKDXrGQ-58" value="" style="shape=trapezoid;perimeter=trapezoidPerimeter;whiteSpace=wrap;html=1;fixedSize=1;rotation=90;fillColor=#ffe6cc;strokeColor=#d79b00;" parent="1" vertex="1">
          <mxGeometry x="1007.5" y="950" width="170" height="60" as="geometry" />
        </mxCell>
        <mxCell id="Hql1T-kyzorYGqKDXrGQ-59" style="edgeStyle=orthogonalEdgeStyle;rounded=0;orthogonalLoop=1;jettySize=auto;html=1;exitX=1;exitY=0.5;exitDx=0;exitDy=0;entryX=0.299;entryY=1.009;entryDx=0;entryDy=0;entryPerimeter=0;" parent="1" source="Hql1T-kyzorYGqKDXrGQ-19" target="Hql1T-kyzorYGqKDXrGQ-58" edge="1">
          <mxGeometry relative="1" as="geometry" />
        </mxCell>
        <mxCell id="Hql1T-kyzorYGqKDXrGQ-60" style="edgeStyle=orthogonalEdgeStyle;rounded=0;orthogonalLoop=1;jettySize=auto;html=1;exitX=1;exitY=0.5;exitDx=0;exitDy=0;entryX=0.638;entryY=0.99;entryDx=0;entryDy=0;entryPerimeter=0;" parent="1" source="Hql1T-kyzorYGqKDXrGQ-54" target="Hql1T-kyzorYGqKDXrGQ-58" edge="1">
          <mxGeometry relative="1" as="geometry" />
        </mxCell>
        <mxCell id="Hql1T-kyzorYGqKDXrGQ-62" value="&lt;b&gt;&lt;font style=&quot;font-size: 16px;&quot;&gt;ALUSrcMux&lt;/font&gt;&lt;/b&gt;" style="text;html=1;align=center;verticalAlign=middle;whiteSpace=wrap;rounded=0;" parent="1" vertex="1">
          <mxGeometry x="1060" y="965" width="60" height="30" as="geometry" />
        </mxCell>
        <mxCell id="Hql1T-kyzorYGqKDXrGQ-64" style="edgeStyle=orthogonalEdgeStyle;rounded=0;orthogonalLoop=1;jettySize=auto;html=1;entryX=0;entryY=0.5;entryDx=0;entryDy=0;" parent="1" source="Hql1T-kyzorYGqKDXrGQ-63" target="Hql1T-kyzorYGqKDXrGQ-58" edge="1">
          <mxGeometry relative="1" as="geometry" />
        </mxCell>
        <mxCell id="Hql1T-kyzorYGqKDXrGQ-63" value="ALUSrcMuxSel" style="text;html=1;align=center;verticalAlign=middle;whiteSpace=wrap;rounded=0;" parent="1" vertex="1">
          <mxGeometry x="1035" y="580" width="110" height="30" as="geometry" />
        </mxCell>
        <mxCell id="Hql1T-kyzorYGqKDXrGQ-65" value="instr_Code" style="text;html=1;align=center;verticalAlign=middle;whiteSpace=wrap;rounded=0;" parent="1" vertex="1">
          <mxGeometry x="712" y="1129" width="60" height="30" as="geometry" />
        </mxCell>
        <mxCell id="pkkU2YOn6hGoXM939YYL-2" style="edgeStyle=orthogonalEdgeStyle;rounded=0;orthogonalLoop=1;jettySize=auto;html=1;entryX=0.5;entryY=0;entryDx=0;entryDy=0;" parent="1" source="pkkU2YOn6hGoXM939YYL-1" target="Hql1T-kyzorYGqKDXrGQ-15" edge="1">
          <mxGeometry relative="1" as="geometry" />
        </mxCell>
        <mxCell id="pkkU2YOn6hGoXM939YYL-1" value="ALUControl" style="text;html=1;align=center;verticalAlign=middle;whiteSpace=wrap;rounded=0;" parent="1" vertex="1">
          <mxGeometry x="1185" y="578" width="110" height="30" as="geometry" />
        </mxCell>
      </root>
    </mxGraphModel>
  </diagram>
</mxfile>
